<svg width="20" height="20" viewBox="0 0 20 20" fill="none" xmlns="http://www.w3.org/2000/svg">
<path d="M3.68866 17.0006L2.28491 1.25H17.7149L16.3093 16.9981L9.99054 18.75L3.68866 17.0006Z" fill="#1572B6"/>
<path d="M10 17.4112L15.1062 15.9956L16.3075 2.53812H10V17.4112Z" fill="#33A9DC"/>
<path d="M10 8.24438H12.5563L12.7325 6.26626H10V4.33438H10.0069H14.8438L14.7975 4.85251L14.3231 10.1763H10V8.24438Z" fill="white"/>
<path d="M10.0118 13.2613L10.003 13.2638L7.85178 12.6825L7.71428 11.1419H6.66865H5.7749L6.04553 14.175L10.0024 15.2738L10.0118 15.2713V13.2613Z" fill="#EBEBEB"/>
<path d="M12.3918 10.0944L12.1593 12.6812L10.0049 13.2625V15.2725L13.9649 14.175L13.9943 13.8487L14.3299 10.0944H12.3918Z" fill="white"/>
<path d="M10.0069 4.33438V5.53438V6.26126V6.26626H5.34686H5.34061L5.30186 5.83188L5.21373 4.85251L5.16748 4.33438H10.0069Z" fill="#EBEBEB"/>
<path d="M10 8.24438V9.44438V10.1713V10.1763H7.88188H7.87563L7.83687 9.74188L7.74938 8.76251L7.70312 8.24438H10Z" fill="#EBEBEB"/>
</svg>
