<svg width="18" height="18" viewBox="0 0 18 18" fill="none" xmlns="http://www.w3.org/2000/svg">
<g clip-path="url(#clip0_4_156)">
<path d="M9 17.9666C8.7205 17.9666 8.45963 17.9006 8.21739 17.785L5.73913 16.4811C5.36646 16.2995 5.5528 16.2335 5.6646 16.2005C6.1677 16.0519 6.26087 16.0189 6.78261 15.7548C6.83851 15.7218 6.91304 15.7383 6.96894 15.7713L8.86957 16.7782C8.9441 16.8112 9.03727 16.8112 9.09317 16.7782L16.528 12.9653C16.6025 12.9323 16.6398 12.8663 16.6398 12.7838V5.17458C16.6398 5.09205 16.6025 5.02603 16.528 4.99302L9.09317 1.19667C9.01863 1.16366 8.92547 1.16366 8.86957 1.19667L1.43478 4.99302C1.36025 5.02603 1.32298 5.10856 1.32298 5.17458V12.7838C1.32298 12.8498 1.36025 12.9323 1.43478 12.9653L3.46584 14.0052C4.56522 14.5004 5.25466 13.9227 5.25466 13.345V5.83481C5.25466 5.73578 5.34783 5.63674 5.47826 5.63674H6.42857C6.54037 5.63674 6.65217 5.71927 6.65217 5.83481V13.345C6.65217 14.6489 5.85093 15.4082 4.45342 15.4082C4.02484 15.4082 3.68944 15.4082 2.73913 14.9956L0.782609 14.0052C0.298137 13.7576 0 13.2955 0 12.8003V5.19109C0 4.69591 0.298137 4.23375 0.782609 3.98616L8.21739 0.173311C8.68323 -0.0577704 9.31677 -0.0577704 9.78261 0.173311L17.2174 3.98616C17.7019 4.23375 18 4.69591 18 5.19109V12.8003C18 13.2955 17.7019 13.7576 17.2174 14.0052L9.78261 17.8181C9.54037 17.9171 9.26087 17.9666 9 17.9666ZM11.2919 12.7343C8.03106 12.7343 7.36025 11.4138 7.36025 10.2914C7.36025 10.1924 7.45342 10.0933 7.58385 10.0933H8.5528C8.6646 10.0933 8.75776 10.1593 8.75776 10.2584C8.90683 11.1332 9.3354 11.5623 11.3106 11.5623C12.8758 11.5623 13.5466 11.2487 13.5466 10.506C13.5466 10.0768 13.3602 9.7632 10.9193 9.54863C8.8882 9.36706 7.62112 8.97092 7.62112 7.53492C7.62112 6.19794 8.8882 5.40566 11.0124 5.40566C13.3975 5.40566 14.5714 6.13192 14.7205 7.71648C14.7205 7.766 14.7019 7.81551 14.6646 7.86503C14.6273 7.89804 14.5714 7.93106 14.5155 7.93106H13.5466C13.4534 7.93106 13.3602 7.86503 13.3416 7.7825C13.118 6.87468 12.5404 6.57758 11.0124 6.57758C9.29814 6.57758 9.09317 7.10576 9.09317 7.5019C9.09317 7.98057 9.3354 8.12913 11.646 8.39322C13.9379 8.65731 15.0186 9.03695 15.0186 10.4564C15 11.909 13.6584 12.7343 11.2919 12.7343Z" fill="#539E43"/>
</g>
<defs>
<clipPath id="clip0_4_156">
<rect width="18" height="18" fill="white"/>
</clipPath>
</defs>
</svg>
