<svg width="18" height="18" viewBox="0 0 18 18" fill="none" xmlns="http://www.w3.org/2000/svg">
<path d="M8.93531 1.18125C4.94156 1.18125 5.19413 2.90812 5.19413 2.90812V4.7025H8.99213V5.265H3.68156C3.68156 5.265 1.125 4.95 1.125 9.00281C1.125 13.0556 3.38231 12.8908 3.38231 12.8908H4.68563V11.0002C4.68563 11.0002 4.6125 8.74294 6.87937 8.74294H10.683C10.683 8.74294 12.8048 8.77669 12.8048 6.68869V3.2625C12.8048 3.2625 13.1265 1.1745 8.95612 1.1745L8.93531 1.18125ZM6.83606 2.38331C6.97109 2.37991 7.10409 2.41662 7.21824 2.4888C7.3324 2.56099 7.42259 2.6654 7.4774 2.78885C7.53221 2.91229 7.54919 3.04921 7.52618 3.18231C7.50317 3.3154 7.44121 3.43868 7.34813 3.53655C7.25506 3.63443 7.13505 3.7025 7.00328 3.73217C6.87151 3.76184 6.73391 3.75176 6.60786 3.70322C6.48182 3.65468 6.37301 3.56985 6.29518 3.45946C6.21735 3.34907 6.17401 3.21809 6.17063 3.08306V3.07181C6.17063 2.8907 6.24257 2.71701 6.37063 2.58895C6.4987 2.46088 6.67239 2.38894 6.8535 2.38894L6.83606 2.38331Z" fill="url(#paint0_linear_4_169)"/>
<path d="M9.04775 16.8244C13.0415 16.8244 12.7889 15.0919 12.7889 15.0919V13.3031H8.9915V12.7406H14.3184C14.3184 12.7406 16.8749 13.0264 16.8749 8.99719C16.8749 4.968 14.6176 5.10919 14.6176 5.10919H13.2974V6.975C13.2974 6.975 13.3706 9.23231 11.1037 9.23231H7.29838C7.29838 9.23231 5.17494 9.20025 5.17494 11.2882V14.7375C5.17494 14.7375 4.85319 16.8255 9.02356 16.8255H9.04606L9.04775 16.8244ZM11.147 15.6167C11.012 15.6201 10.879 15.5834 10.7648 15.5112C10.6507 15.439 10.5605 15.3346 10.5057 15.2112C10.4509 15.0877 10.4339 14.9508 10.4569 14.8177C10.4799 14.6846 10.5419 14.5613 10.6349 14.4634C10.728 14.3656 10.848 14.2975 10.9798 14.2678C11.1116 14.2382 11.2492 14.2482 11.3752 14.2968C11.5012 14.3453 11.6101 14.4302 11.6879 14.5405C11.7657 14.6509 11.8091 14.7819 11.8124 14.9169V14.9338C11.8124 15.1149 11.7405 15.2886 11.6124 15.4167C11.4844 15.5447 11.3107 15.6167 11.1296 15.6167H11.147Z" fill="url(#paint1_linear_4_169)"/>
<defs>
<linearGradient id="paint0_linear_4_169" x1="2.68153" y1="2.71288" x2="10.1553" y2="10.1697" gradientUnits="userSpaceOnUse">
<stop stop-color="#387EB8"/>
<stop offset="1" stop-color="#366994"/>
</linearGradient>
<linearGradient id="paint1_linear_4_169" x1="7.10291" y1="7.57045" x2="15.6418" y2="15.025" gradientUnits="userSpaceOnUse">
<stop stop-color="#FFE052"/>
<stop offset="1" stop-color="#FFC331"/>
</linearGradient>
</defs>
</svg>
