<svg width="18" height="16" viewBox="0 0 18 16" fill="none" xmlns="http://www.w3.org/2000/svg">
<g clip-path="url(#clip0_4_160)">
<path d="M14.7996 5.18061C14.6129 5.11646 14.4194 5.05577 14.2202 4.99837C14.2529 4.86499 14.283 4.73334 14.3097 4.60393C14.7483 2.47894 14.4615 0.767035 13.4822 0.203403C12.5432 -0.337045 11.0075 0.226459 9.45653 1.5736C9.30739 1.70314 9.15783 1.84029 9.00833 1.98403C8.90872 1.88893 8.80927 1.79702 8.71007 1.70912C7.0846 0.268669 5.45531 -0.338356 4.47698 0.226906C3.53886 0.768922 3.26104 2.37828 3.65586 4.39214C3.69399 4.58666 3.73856 4.7853 3.78896 4.98727C3.55837 5.0526 3.33576 5.12225 3.12275 5.19634C1.21706 5.85945 0 6.89871 0 7.9767C0 9.09006 1.30652 10.2068 3.29144 10.8839C3.44809 10.9373 3.61062 10.9878 3.77813 11.0358C3.72376 11.2542 3.67647 11.4683 3.63677 11.6771C3.2603 13.656 3.5543 15.2273 4.48992 15.7659C5.45634 16.3221 7.07826 15.7504 8.65759 14.3726C8.78242 14.2637 8.90769 14.1482 9.03319 14.0271C9.19586 14.1834 9.35827 14.3314 9.51981 14.4702C11.0496 15.784 12.5605 16.3146 13.4952 15.7745C14.4607 15.2167 14.7745 13.5287 14.3671 11.475C14.336 11.3181 14.2998 11.1579 14.2591 10.9948C14.373 10.9612 14.4849 10.9265 14.5939 10.8904C16.6574 10.208 18 9.10492 18 7.9767C18 6.89481 16.7437 5.84855 14.7996 5.18061ZM14.352 10.1619C14.2536 10.1945 14.1526 10.2259 14.0497 10.2564C13.8219 9.53659 13.5145 8.77121 13.1382 7.98044C13.4973 7.20851 13.7928 6.45292 14.0143 5.73781C14.1984 5.79099 14.3771 5.84708 14.5493 5.90627C16.215 6.47856 17.231 7.32472 17.231 7.9767C17.231 8.67118 16.1337 9.57272 14.352 10.1619ZM13.6128 11.624C13.7929 12.5321 13.8186 13.3532 13.6993 13.995C13.5921 14.5718 13.3765 14.9563 13.1099 15.1103C12.5427 15.438 11.3296 15.012 10.0213 13.8884C9.87132 13.7596 9.72025 13.6221 9.56871 13.4765C10.0759 12.9229 10.5828 12.2793 11.0775 11.5645C11.9477 11.4874 12.7698 11.3614 13.5153 11.1894C13.552 11.3373 13.5847 11.4822 13.6128 11.624ZM6.13661 15.0537C5.58238 15.249 5.14097 15.2546 4.87414 15.1011C4.30637 14.7742 4.07033 13.5126 4.3923 11.8202C4.42918 11.6264 4.47307 11.4273 4.52366 11.2238C5.26102 11.3865 6.07711 11.5036 6.94936 11.5742C7.44742 12.2737 7.96896 12.9166 8.49454 13.4795C8.37971 13.5901 8.26533 13.6955 8.15159 13.7947C7.45322 14.404 6.75337 14.8362 6.13661 15.0537ZM3.54014 10.1577C2.66244 9.85828 1.9376 9.46915 1.44076 9.04452C0.994322 8.66293 0.768922 8.2841 0.768922 7.9767C0.768922 7.32254 1.7461 6.48816 3.37587 5.92104C3.57362 5.85223 3.78063 5.78738 3.99545 5.72646C4.22069 6.45772 4.51616 7.22226 4.87274 7.99538C4.51155 8.77997 4.21188 9.5567 3.98443 10.2965C3.83128 10.2526 3.68291 10.2064 3.54014 10.1577ZM4.4105 4.24476C4.07222 2.51933 4.29688 1.21772 4.86223 0.891107C5.46441 0.543162 6.79602 1.03926 8.19949 2.28302C8.2892 2.36251 8.37926 2.44572 8.46958 2.5318C7.9466 3.09226 7.42983 3.73034 6.93619 4.42565C6.08964 4.50397 5.27929 4.62977 4.53423 4.79822C4.48739 4.61016 4.4459 4.4254 4.4105 4.24476ZM12.1749 6.15825C11.9968 5.8512 11.8139 5.55141 11.6275 5.25981C12.2018 5.33227 12.7521 5.42846 13.2688 5.54617C13.1137 6.04239 12.9203 6.56123 12.6927 7.0931C12.5294 6.78372 12.3567 6.47179 12.1749 6.15825ZM9.00859 3.08027C9.36327 3.46378 9.71846 3.89195 10.0678 4.35652C9.71577 4.33992 9.35936 4.33129 9 4.33129C8.64404 4.33129 8.29026 4.33973 7.94038 4.35604C8.2901 3.89579 8.64836 3.46819 9.00859 3.08027ZM5.82201 6.16356C5.64409 6.47147 5.4746 6.78171 5.31389 7.09253C5.08996 6.56251 4.8984 6.04131 4.74192 5.53805C5.25548 5.42335 5.80314 5.32956 6.3738 5.25847C6.18476 5.55276 6.00041 5.85482 5.82201 6.16356ZM6.39023 10.7497C5.80064 10.684 5.24475 10.5951 4.73131 10.4835C4.89029 9.97129 5.08609 9.43896 5.31475 8.89752C5.47588 9.20812 5.64605 9.51849 5.82505 9.82707C6.00739 10.1414 6.19633 10.4494 6.39023 10.7497ZM9.02986 12.9272C8.66541 12.5348 8.30189 12.1007 7.94685 11.6337C8.2915 11.6472 8.64289 11.6541 9 11.6541C9.36689 11.6541 9.72958 11.6458 10.0866 11.63C9.73605 12.1054 9.38214 12.5402 9.02986 12.9272ZM12.7 8.86992C12.9406 9.41722 13.1434 9.94676 13.3045 10.4503C12.7826 10.5691 12.2191 10.6648 11.6254 10.7359C11.8123 10.4404 11.9967 10.1355 12.178 9.82179C12.3613 9.50445 12.5354 9.18663 12.7 8.86992ZM11.5119 9.43838C11.2305 9.9253 10.9416 10.3901 10.6484 10.8289C10.1142 10.867 9.56243 10.8866 9 10.8866C8.43985 10.8866 7.89498 10.8693 7.3703 10.8353C7.06522 10.3908 6.77006 9.92457 6.49049 9.44257C6.21164 8.96189 5.95507 8.47715 5.72253 7.99512C5.95501 7.51198 6.21097 7.02669 6.48821 6.54687L6.48815 6.54696C6.76612 6.06587 7.05868 5.60194 7.36094 5.1602C7.89626 5.11982 8.4452 5.09874 8.99997 5.09874C9.55724 5.09874 10.1069 5.11998 10.6421 5.16072C10.9397 5.59922 11.2303 6.06164 11.5094 6.54281C11.7916 7.02937 12.0509 7.51143 12.2853 7.98422C12.0516 8.46512 11.7929 8.95204 11.5119 9.43838ZM13.0981 0.868275C13.7009 1.2152 13.9353 2.61433 13.5566 4.44903C13.5324 4.5661 13.5052 4.68534 13.4757 4.80618C12.7289 4.63421 11.918 4.50624 11.069 4.42674C10.5744 3.72378 10.0618 3.08472 9.54737 2.53145C9.68568 2.39864 9.82381 2.27201 9.96135 2.15252C11.2902 0.998295 12.5323 0.542586 13.0981 0.868275ZM9 6.3725C9.88769 6.3725 10.6073 7.09071 10.6073 7.9767C10.6073 8.86266 9.88769 9.58091 9 9.58091C8.11231 9.58091 7.39266 8.86266 7.39266 7.9767C7.39266 7.09071 8.11231 6.3725 9 6.3725Z" fill="#00D8FF"/>
</g>
<defs>
<clipPath id="clip0_4_160">
<rect width="18" height="16" fill="white"/>
</clipPath>
</defs>
</svg>
