<svg width="20" height="20" viewBox="0 0 20 20" fill="none" xmlns="http://www.w3.org/2000/svg">
<path d="M17.93 1.25H2.07C1.61713 1.25 1.25 1.61713 1.25 2.07V17.93C1.25 18.3829 1.61713 18.75 2.07 18.75H17.93C18.3829 18.75 18.75 18.3829 18.75 17.93V2.07C18.75 1.61713 18.3829 1.25 17.93 1.25Z" fill="#3178C6"/>
<path fill-rule="evenodd" clip-rule="evenodd" d="M11.4031 14.8494V16.7669C11.7515 16.9388 12.1227 17.0599 12.5056 17.1263C12.9479 17.2079 13.397 17.2481 13.8468 17.2463C14.2852 17.2483 14.7227 17.2041 15.1518 17.1144C15.5371 17.0365 15.9047 16.8882 16.2362 16.6769C16.5439 16.4782 16.7975 16.2064 16.9743 15.8856C17.2909 15.2215 17.3327 14.4592 17.0906 13.7644C16.9884 13.5046 16.8361 13.2673 16.6424 13.0663C16.4345 12.8524 16.1984 12.668 15.9406 12.5181C15.6437 12.3443 15.3353 12.191 15.0174 12.0594C14.7674 11.9556 14.5424 11.8548 14.3424 11.7569C14.1648 11.6718 13.9948 11.5717 13.8343 11.4575C13.7086 11.3694 13.5994 11.2598 13.5118 11.1337C13.4361 11.0193 13.3967 10.8847 13.3987 10.7475C13.397 10.6212 13.4322 10.4972 13.4999 10.3906C13.5735 10.2791 13.6716 10.1859 13.7868 10.1181C13.9276 10.0352 14.0808 9.97551 14.2406 9.94125C14.4367 9.89768 14.6372 9.87671 14.8381 9.87875C15.007 9.87933 15.1757 9.89144 15.3431 9.915C15.5237 9.93943 15.7025 9.97639 15.8781 10.0256C16.0566 10.0751 16.2313 10.1378 16.4006 10.2131C16.5648 10.2864 16.722 10.3746 16.8699 10.4769V8.6875C16.5619 8.57095 16.2424 8.48716 15.9168 8.4375C15.5236 8.38029 15.1266 8.35333 14.7293 8.35688C14.295 8.35454 13.862 8.40384 13.4393 8.50375C13.0573 8.59105 12.694 8.74622 12.3668 8.96188C12.0629 9.16436 11.8119 9.43676 11.6349 9.75625C11.4474 10.111 11.3546 10.5082 11.3656 10.9094C11.3517 11.4399 11.5264 11.9581 11.8587 12.3719C12.2663 12.8307 12.7803 13.1824 13.3556 13.3963C13.6181 13.5046 13.8628 13.6106 14.0899 13.7144C14.2948 13.8055 14.4917 13.9136 14.6787 14.0375C14.8295 14.1356 14.9619 14.2593 15.0699 14.4031C15.1649 14.5336 15.2154 14.6911 15.2137 14.8525C15.2145 14.9734 15.1835 15.0924 15.1237 15.1975C15.0572 15.3104 14.9638 15.4051 14.8518 15.4731C14.7117 15.5586 14.5583 15.6202 14.3981 15.6556C14.1893 15.7023 13.9757 15.7243 13.7618 15.7213C13.342 15.7205 12.9255 15.6465 12.5312 15.5025C12.1192 15.3538 11.7371 15.1326 11.4031 14.8494ZM8.18181 10.0756H10.6818V8.49625H3.71118V10.0756H6.19993V17.1094H8.18181V10.0756Z" fill="white"/>
</svg>
